<?xml version="1.0" encoding="UTF-8" standalone="no"?><!DOCTYPE svg PUBLIC "-//W3C//DTD SVG 1.1//EN" "http://www.w3.org/Graphics/SVG/1.1/DTD/svg11.dtd"><svg width="100%" height="100%" viewBox="0 0 300 56" version="1.1" xmlns="http://www.w3.org/2000/svg" xmlns:xlink="http://www.w3.org/1999/xlink" xml:space="preserve" style="fill-rule:evenodd;clip-rule:evenodd;stroke-linejoin:round;stroke-miterlimit:1.41421;"><g><g><path d="M66.394,1.006l0,54.048l39.104,0l0,-10.83l-26.043,0l0,-43.218l-13.061,0Z" style="fill:#fff;fill-rule:nonzero;"/><path d="M125.353,47.983l10.148,-17.525l10.038,17.553l-20.186,-0.028Zm0,0l20.186,0.028c1.319,2.294 2.638,4.615 3.957,6.909l12.749,0l-26.854,-46.376l-26.78,46.376l12.713,0c1.355,-2.322 2.711,-4.615 4.029,-6.937l0,0Z" style="fill:#fff;fill-rule:nonzero;"/><path d="M149.286,37.183l5.783,-11.232l5.742,11.232l5.338,9.556l-14.811,0l-2.052,-9.556Zm2.052,9.556l14.811,0c1.456,2.716 2.911,5.465 4.367,8.181l14.073,0l-29.642,-54.92l-12.71,24.007l2.371,13.747l6.73,8.985Z" style="fill:#fff;fill-rule:nonzero;"/><path d="M189.563,55.054l13.061,0l0,-21.123l16.661,21.123l15.933,0l-14.72,-18.81c4.287,-1.341 6.592,-2.28 9.341,-5.498c2.75,-3.219 4.125,-6.17 4.125,-10.193l0,-1.676c0,-5.197 -1.82,-8.684 -6.308,-12.406c-4.489,-3.722 -10.676,-5.532 -16.944,-5.532l-21.19,0l0.041,54.115Zm13.021,-28.097l0,-15.222l7.319,0c2.71,0 6.106,0.57 8.007,2.179c1.901,1.61 2.588,3.085 2.588,5.298c0,2.246 -0.687,4.057 -2.588,5.633c-1.901,1.575 -3.275,2.145 -5.985,2.145l-9.341,-0.033Z" style="fill:#fff;fill-rule:nonzero;"/><rect x="241.283" y="1.006" width="13.062" height="54.048" style="fill:#fff;fill-rule:nonzero;"/><path d="M280.185,44.392c-3.639,0 -6.591,-2.448 -6.591,-5.465l-13.183,0c0,4.526 1.941,8.382 5.823,11.601c3.882,3.218 8.532,4.828 13.992,4.828c5.418,0 10.069,-1.61 13.951,-4.828c3.882,-3.219 5.823,-7.075 5.823,-11.601c0,-3.051 -0.93,-5.566 -2.75,-7.511c-3.114,-3.319 -7.643,-5.901 -12.657,-7.108c-4.65,-1.14 -4.206,-0.737 -8.088,-2.816c-1.9,-1.006 -2.83,-2.481 -2.83,-4.426c0,-2.984 2.992,-5.465 6.591,-5.465c3.559,0 6.551,2.481 6.551,5.432l13.143,0c0,-4.493 -1.941,-8.349 -5.824,-11.568c-3.882,-3.219 -8.532,-4.828 -13.951,-4.828c-5.459,0 -10.109,1.609 -13.991,4.828c-3.883,3.219 -5.824,7.075 -5.824,11.568c0,2.984 0.89,5.465 2.669,7.476c2.993,3.387 7.441,6.103 12.253,7.477c4.57,1.308 3.437,0.973 8.128,2.414c2.224,0.671 3.316,2.146 3.316,4.46c0,2.984 -2.992,5.465 -6.591,5.465l0.04,0.067Z" style="fill:#fff;fill-rule:nonzero;"/></g><g><g><path d="M0,55.356l0,-55.356l55.675,0l0,55.356l-7.178,-12.448l-0.014,-35.409l-40.774,0l0.001,35.357" style="fill:#fff;"/><path d="M12.268,50.271c-0.966,1.702 -1.959,3.383 -2.953,5.085l-9.315,0l19.624,-33.997l5.754,9.942l8.576,-16.205l21.721,40.26l-10.312,0c-1.067,-1.991 -2.133,-4.006 -3.2,-5.997l-6.333,0l3.472,5.997l-9.343,0c-0.966,-1.682 -1.932,-3.383 -2.899,-5.065l-7.355,-12.867l-7.437,12.847Zm18.465,-9.719l5.097,8.807l6.333,0l-3.912,-7.005l-4.208,-8.234l-3.31,6.432Z" style="fill:#fff;"/></g></g></g></svg>